<svg width="329" height="83" viewBox="0 0 329 83" fill="none" xmlns="http://www.w3.org/2000/svg">
<path d="M104.694 58.1282C104.694 58.0082 104.694 57.7882 104.694 57.4682C104.734 57.1082 104.754 56.8082 104.754 56.5682L105.174 48.8282C105.174 48.5082 105.254 48.2682 105.414 48.1082C105.614 47.9482 105.814 47.8682 106.014 47.8682C106.574 47.8682 107.014 48.0882 107.334 48.5282C107.654 48.9682 107.894 49.4482 108.054 49.9682C108.814 52.0082 109.694 53.9082 110.694 55.6682C111.694 57.3882 112.894 58.7882 114.294 59.8682C115.734 60.9082 117.394 61.4282 119.274 61.4282C121.994 61.4282 123.974 60.7482 125.214 59.3882C126.454 58.0282 127.074 56.3882 127.074 54.4682C127.074 52.7482 126.674 51.2882 125.874 50.0882C125.114 48.8482 123.994 47.7282 122.514 46.7282C121.074 45.6882 119.314 44.6282 117.234 43.5482C115.194 42.4682 113.334 41.3682 111.654 40.2482C109.974 39.0882 108.634 37.6882 107.634 36.0482C106.634 34.4082 106.134 32.3682 106.134 29.9282C106.134 28.0082 106.614 26.2682 107.574 24.7082C108.574 23.1082 110.074 21.8482 112.074 20.9282C114.074 20.0082 116.634 19.5482 119.754 19.5482C121.274 19.5482 122.854 19.7082 124.494 20.0282C126.134 20.3482 127.554 20.7882 128.754 21.3482C130.114 21.9482 130.994 22.4682 131.394 22.9082C131.794 23.3082 131.994 23.8482 131.994 24.5282C131.994 24.7682 131.974 25.1482 131.934 25.6682C131.894 26.1482 131.774 26.8882 131.574 27.8882C131.414 28.6082 131.214 29.4082 130.974 30.2882C130.774 31.1282 130.514 31.5482 130.194 31.5482C129.834 31.5482 129.534 31.3882 129.294 31.0682C129.054 30.7482 128.794 30.2682 128.514 29.6282C127.954 28.3482 127.254 27.0682 126.414 25.7882C125.614 24.5082 124.654 23.4482 123.534 22.6082C122.454 21.7282 121.194 21.2882 119.754 21.2882C117.474 21.2882 115.834 21.8882 114.834 23.0882C113.874 24.2482 113.394 25.7482 113.394 27.5882C113.394 29.2282 113.754 30.6482 114.474 31.8482C115.194 33.0082 116.174 34.0282 117.414 34.9082C118.694 35.7882 120.134 36.6482 121.734 37.4882C124.374 38.8482 126.634 40.1882 128.514 41.5082C130.434 42.8282 131.914 44.3082 132.954 45.9482C133.994 47.5882 134.514 49.5882 134.514 51.9482C134.514 55.7482 133.114 58.5682 130.314 60.4082C127.514 62.2482 123.834 63.1682 119.274 63.1682C117.514 63.1682 115.554 62.9482 113.394 62.5082C111.274 62.0682 109.394 61.5082 107.754 60.8282C106.394 60.2682 105.534 59.8482 105.174 59.5682C104.854 59.2882 104.694 58.8082 104.694 58.1282Z" fill="#324376"/>
<path d="M139.942 62.2082V60.4682H143.002V22.3682H139.942V20.6282H169.822C170.302 20.6282 170.542 20.7482 170.542 20.9882C170.542 21.1082 170.502 21.2882 170.422 21.5282C170.382 21.7682 170.342 21.9482 170.302 22.0682C169.422 24.7082 168.902 27.3482 168.742 29.9882C168.742 30.1482 168.642 30.3082 168.442 30.4682C168.242 30.5882 168.022 30.6482 167.782 30.6482C167.622 30.6482 167.422 30.5882 167.182 30.4682C166.982 30.3482 166.862 30.1882 166.822 29.9882C166.582 28.3482 166.002 26.8882 165.082 25.6082C164.362 24.5682 163.502 23.7682 162.502 23.2082C161.542 22.6482 160.362 22.3682 158.962 22.3682H151.222V39.7682H153.862C155.102 39.7682 156.282 39.6082 157.402 39.2882C158.522 38.9282 159.402 38.4082 160.042 37.7282C160.482 37.2482 160.862 36.7082 161.182 36.1082C161.542 35.4682 161.802 34.7882 161.962 34.0682C162.082 33.5482 162.382 33.2882 162.862 33.2882C163.502 33.2882 163.822 33.5482 163.822 34.0682V47.5082C163.822 48.0682 163.502 48.3482 162.862 48.3482C162.382 48.3482 162.082 48.0882 161.962 47.5682C161.682 46.2082 161.082 44.9282 160.162 43.7282C159.522 42.8882 158.622 42.3082 157.462 41.9882C156.302 41.6682 155.102 41.5082 153.862 41.5082H151.222V60.4682H156.922C158.882 60.4682 160.622 60.2482 162.142 59.8082C163.702 59.3682 165.182 58.3482 166.582 56.7482C167.262 55.9882 167.842 55.2282 168.322 54.4682C168.802 53.6682 169.262 52.7682 169.702 51.7682C169.862 51.4482 170.022 51.2082 170.182 51.0482C170.382 50.8482 170.682 50.7482 171.082 50.7482C171.402 50.7482 171.662 50.8482 171.862 51.0482C172.062 51.2482 172.162 51.4882 172.162 51.7682C172.162 51.9682 172.122 52.2882 172.042 52.7282C171.962 53.1282 171.882 53.6282 171.802 54.2282L170.422 62.2082H139.942Z" fill="#324376"/>
<path d="M174.161 62.2082V60.4682C175.561 60.4682 176.621 60.0482 177.341 59.2082C178.101 58.3282 178.661 57.3282 179.021 56.2082L189.521 25.2482C189.601 25.0082 189.661 24.8082 189.701 24.6482C189.741 24.4482 189.761 24.2282 189.761 23.9882C189.761 23.3882 189.441 23.0282 188.801 22.9082C188.521 22.8282 188.241 22.7082 187.961 22.5482C187.681 22.3882 187.541 22.1882 187.541 21.9482C187.541 21.7082 187.661 21.5282 187.901 21.4082C188.181 21.2482 188.401 21.1682 188.561 21.1682C190.121 21.1682 191.521 21.0682 192.761 20.8682C194.001 20.6682 194.901 20.3682 195.461 19.9682C195.661 19.8482 195.901 19.7482 196.181 19.6682C196.501 19.5882 196.741 19.5482 196.901 19.5482C197.221 19.5482 197.481 19.7682 197.681 20.2082C197.921 20.6482 198.161 21.2482 198.401 22.0082L210.641 60.4682H213.461V62.2082H198.641V60.4682H201.881L198.701 50.2682H183.161L181.001 56.4482C180.921 56.7282 180.841 57.0482 180.761 57.4082C180.681 57.7682 180.641 58.0482 180.641 58.2482C180.641 58.7682 180.861 59.2682 181.301 59.7482C181.741 60.2282 182.561 60.4682 183.761 60.4682V62.2082H174.161ZM183.761 48.4682H198.101L191.141 26.6882L183.761 48.4682Z" fill="#324376"/>
<path d="M250.274 19.9682V62.2082H240.866L225.506 35.2002L225.762 62.2082H216.354V19.9682H226.146L241.122 46.3362L240.866 19.9682H250.274Z" fill="#324376"/>
<path d="M288.649 53.6962V62.2082H255.433V19.9682H287.497V28.4802H264.841V36.5442H286.345V44.2882H264.841V53.6962H288.649Z" fill="#324376"/>
<path d="M328.496 28.4802H314.8V62.2082H305.392V28.4802H291.632V19.9682H328.496V28.4802Z" fill="#324376"/>
<path d="M88.6872 30.4562C88.6605 30.3215 88.0682 29.7403 87.918 29.6968C86.7543 29.3515 85.0068 30.6064 83.8446 31.0345C73.7888 34.7345 66.5446 29.4315 59.8281 22.5902C53.4921 16.1348 48.5007 6.48748 40.5743 2.01826C32.4822 -2.545 25.9019 1.24205 20.1961 7.27914C16.8161 10.8556 13.7267 15.6196 11.2885 19.8965C7.33585 26.8278 3.92919 33.3533 0.870635 40.7506C0.326019 42.0644 -0.499326 43.388 0.397606 44.7187C1.0475 45.683 4.75032 46.5785 6.03747 47.213C10.0786 49.2076 14.552 54.9527 17.2568 58.5699C23.0244 66.2816 28.4846 75.9373 36.2061 81.8284C36.456 82.0193 37.0286 82.5428 37.2462 82.6116C38.1726 82.8994 38.9994 82.5807 39.5594 81.8228C40.4648 80.596 41.3533 78.6056 42.2446 77.216C47.7989 68.5625 56.4973 57.7038 65.5775 52.7321C68.8859 50.92 72.4441 49.769 75.5813 47.5906C80.2428 44.3523 85.2903 37.3762 87.9896 32.3736C88.1959 31.9904 88.7602 30.8282 88.6872 30.4562ZM63.5506 29.8049C64.7451 30.751 67.1327 32.368 68.4802 33.008C69.5007 33.4923 70.9408 33.759 72.0301 34.1562C72.0904 34.4454 71.8869 34.4805 71.7072 34.6026C70.9577 35.1121 67.9412 36.0512 67.0317 36.1059C66.2007 36.1564 65.8877 35.6918 65.3683 35.1388C63.4397 33.0838 61.9055 30.1432 60.8135 27.5647C61.017 27.3541 63.2572 29.5719 63.5506 29.8049ZM57.8083 27.6938C58.1255 27.924 59.3607 30.626 59.7186 31.2535C60.5482 32.7119 61.8353 34.4271 62.5203 35.8827C62.8362 36.5537 62.8095 36.6674 62.0796 36.8933C59.8001 37.6022 57.4082 37.8324 55.0276 38.676C54.4171 38.8907 53.4963 39.695 52.8927 39.1995L46.6591 29.4708C46.8388 28.6974 53.3812 27.677 54.4746 27.6054C55.0866 27.5647 57.4433 27.4313 57.8083 27.6938ZM32.1804 34.9507C32.5215 35.6216 32.5342 35.7536 32.1257 36.3894C31.0351 38.0864 28.6938 40.286 27.3014 41.9409C26.9013 42.4167 26.4297 42.9824 26.1742 43.5494L19.1532 35.0686C20.6579 31.4317 23.249 28.4799 25.8359 25.5912C26.302 25.5168 26.8999 26.679 27.161 27.0706C28.6531 29.3038 31.0168 32.6571 32.1804 34.9507ZM27.867 23.4464C30.1283 21.5978 32.4878 18.8115 35.1056 17.4921C36.2482 16.9166 36.3816 17.77 36.9767 18.6571C38.4309 20.8202 39.9553 23.3116 41.2943 25.5575C41.5105 25.9196 42.7303 27.8945 42.5731 28.1135C41.3463 28.7816 39.9398 29.5017 38.8071 30.3074C37.548 31.2029 36.3072 32.6655 35.0874 33.4586C34.9498 33.5484 34.8516 33.6327 34.6705 33.6032L27.867 23.4464ZM33.9168 38.3924H34.4235L41.0389 48.9521L34.9414 56.317C34.6888 56.3592 34.7575 56.2202 34.6874 56.1388C33.3637 54.6172 32.3082 51.9517 31.1151 50.1803C30.1157 48.6924 28.8468 47.394 27.9063 45.8641L33.9168 38.3924ZM36.6595 36.6393C36.3395 36.0792 36.9346 35.4448 37.3038 35.0447C38.3748 33.8881 40.5223 32.4017 41.8937 31.5721C42.3808 31.2773 43.5037 30.4885 44.0329 30.6668L50.7016 40.7857L43.0938 46.9C42.8819 46.7863 42.7401 46.594 42.6068 46.4017C40.483 43.3417 38.7706 39.7371 36.6595 36.6393ZM50.7774 16.3551C51.8877 17.763 52.991 19.9232 54.0507 21.4953C54.3764 21.9782 56.4018 24.2858 55.9063 24.7602C54.0072 24.9118 52.0758 25.0199 50.2173 25.441C49.2095 25.6698 45.7102 27.065 45.0603 26.8404L38.5769 16.0646C38.8029 15.628 42.0355 15.2533 42.6475 15.2182C44.3417 15.1199 48.6958 15.0554 50.1163 15.7544C50.3717 15.8793 50.6019 16.1334 50.7774 16.3551ZM46.1608 10.3138L47.9111 12.5583C45.7158 12.9022 43.4588 12.5386 41.2536 12.7014C39.7419 12.8137 38.2905 13.3738 36.7872 13.524C35.166 10.9174 33.4971 8.38943 31.4365 6.10709C31.1319 5.76741 29.2103 4.02127 29.2609 3.79809C35.8117 0.453194 41.9751 5.7253 46.1608 10.3138ZM20.0108 11.6515C21.2839 10.1033 23.1227 8.19292 24.6316 6.8777C24.8674 6.67417 26.4044 5.41369 26.5237 5.41088C27.1877 5.39264 30.1199 8.7235 30.6603 9.40848C31.1277 10.0022 34.2382 14.5304 34.1596 14.8588C32.9202 15.7825 31.5081 16.4787 30.3178 17.471C29.797 17.9062 29.3507 18.4887 28.8426 18.9421C27.9597 19.7309 26.8887 20.3373 26.2472 21.3914C26.1335 21.2412 25.9342 21.1865 25.8051 21.0644C25.3966 20.6756 25.0359 20.131 24.56 19.7155C22.4124 17.8346 19.9589 16.5334 17.487 15.155C18.2955 14.004 19.1209 12.7351 20.0108 11.6515ZM9.55642 28.4027C10.8871 25.8045 12.6051 22.854 14.093 20.3176C14.3892 19.8123 15.4096 17.8079 15.8771 17.7433C16.875 17.6072 20.7618 20.3527 21.6222 21.1093C22.0068 21.4476 23.6364 23.0323 23.6477 23.4267C23.6631 23.9503 20.321 27.6952 19.7525 28.5009C18.6465 30.0688 17.7243 31.7869 16.7782 33.453L16.5775 33.4474C15.1514 32.2094 13.1484 31.0752 11.3138 30.5783C10.8899 30.4632 9.01321 30.2541 8.93741 30.0014C8.85179 29.7165 9.395 28.7185 9.55642 28.4027ZM9.69117 45.7841C9.56765 45.9132 9.5087 46.0788 9.2813 46.076C9.1634 46.0746 7.70079 45.1033 7.34006 44.9278C6.05291 44.3004 4.66049 43.84 3.3172 43.3417L3.17262 43.0596C3.62881 41.6812 3.98253 40.2803 4.51591 38.9272C5.38477 36.7221 6.69578 34.6994 7.53937 32.4803C10.3776 32.7919 13.0501 34.0888 15.2145 35.9066C13.7982 38.2282 12.6866 40.7253 11.3362 43.0834C10.9699 43.7235 10.1221 45.3307 9.69117 45.7841ZM18.3208 55.6826L11.9356 48.1099C11.8977 47.7702 13.5975 44.4169 13.9035 43.8274C14.9885 41.7373 16.2322 39.6964 17.4155 37.6597C20.3182 39.7849 22.2833 42.9768 24.3607 45.8711L18.7265 55.7289C18.6114 55.7949 18.4317 55.764 18.3208 55.6826ZM26.8171 67.3792C24.6625 64.5972 22.8279 61.3533 20.5877 58.605L20.4249 58.1909L26.1209 48.4636L26.4564 48.6686C29.1247 51.7889 31.1024 55.3864 33.1869 58.9054L27.4894 67.9393C27.2901 67.9715 26.9378 67.5364 26.8171 67.3792ZM37.7249 79.2864C37.534 79.3215 37.3332 79.1334 37.1845 79.0253C36.5149 78.5382 35.1955 77.1486 34.5344 76.4889C33.2205 75.1779 30.8245 72.8282 29.8223 71.3852C29.4658 70.8715 29.4377 70.4069 29.6511 69.8117C31.4716 67.6501 32.8514 63.6413 34.7323 61.7113C34.8642 61.5751 34.9176 61.446 35.1478 61.4993C37.3529 65.0155 40.1995 68.074 43.1317 70.9908L37.7249 79.2864ZM47.0746 65.9194C46.6801 66.3868 45.1165 68.6228 44.7487 68.6579C44.5452 68.6776 44.388 68.599 44.2588 68.4474C41.3856 65.5208 38.8913 62.2966 36.4279 59.0261L42.2278 51.5292C42.4004 51.3453 42.6587 51.4408 42.8229 51.5853C43.0222 51.7636 43.4574 52.5609 43.7086 52.8711C44.5803 53.9407 45.4646 55.0622 46.3727 56.0967C47.8803 57.8133 49.6685 59.2984 50.9683 61.1695C51.016 61.6551 47.6402 65.2499 47.0746 65.9194ZM60.8079 52.6577C60.6521 52.6928 60.4766 52.7265 60.3461 52.8234C57.8223 54.7028 55.554 56.8953 53.1903 58.9643C51.614 57.5466 50.0924 56.0742 48.6817 54.4895C47.6781 53.3624 45.5895 51.066 44.9087 49.849C44.8021 49.6595 44.635 49.5079 44.7052 49.2581L52.3032 43.1424C54.0297 45.1047 55.7267 47.1147 57.5163 49.0209C58.308 49.8645 60.1468 51.3481 60.6801 52.1665C60.7868 52.3321 60.8626 52.45 60.8079 52.6577ZM72.5003 46.1925C71.3226 47.2074 68.4311 48.1689 66.9334 48.8988C65.7908 49.4546 64.7662 50.228 63.5689 50.6716C62.9569 50.52 62.7477 49.8687 62.3617 49.5037C60.2422 47.5035 58.1297 45.8767 56.1899 43.6154C55.9695 43.36 54.6683 41.75 54.7834 41.59C56.4453 41.0987 58.0904 40.4825 59.772 40.0544C60.5103 39.8663 64.164 38.9988 64.637 39.0844C65.2266 39.1897 67.6422 41.7528 68.3974 42.3465C69.0754 42.8785 69.9119 43.4133 70.6404 43.8891C71.456 44.4225 73.7902 45.0822 72.5003 46.1925ZM77.2923 42.7115C76.6719 43.2027 76.6818 43.1929 75.9182 42.9571C74.071 42.383 71.1177 40.9457 69.7112 39.6305C69.387 39.3273 69.2845 38.8304 68.8073 38.7798L68.8943 38.5019C71.1065 37.845 73.5502 37.1362 75.6332 36.1438C76.2705 35.8392 76.9414 35.2019 77.5773 35.0026C78.4167 34.7401 79.3641 34.8258 80.2175 34.6994C81.0036 34.5815 82.2163 34.2054 82.9406 34.1843C83.168 34.1773 83.2382 34.1464 83.3898 34.3682C81.7096 37.1081 79.8442 40.6916 77.2923 42.7115Z" fill="#324376"/>
</svg>
