<svg width="330" height="83" viewBox="0 0 330 83" fill="none" xmlns="http://www.w3.org/2000/svg">
<path d="M105.214 58.1282C105.214 58.0082 105.214 57.7882 105.214 57.4682C105.254 57.1082 105.274 56.8082 105.274 56.5682L105.694 48.8282C105.694 48.5082 105.774 48.2682 105.934 48.1082C106.134 47.9482 106.334 47.8682 106.534 47.8682C107.094 47.8682 107.534 48.0882 107.854 48.5282C108.174 48.9682 108.414 49.4482 108.574 49.9682C109.334 52.0082 110.214 53.9082 111.214 55.6682C112.214 57.3882 113.414 58.7882 114.814 59.8682C116.254 60.9082 117.914 61.4282 119.794 61.4282C122.514 61.4282 124.494 60.7482 125.734 59.3882C126.974 58.0282 127.594 56.3882 127.594 54.4682C127.594 52.7482 127.194 51.2882 126.394 50.0882C125.634 48.8482 124.514 47.7282 123.034 46.7282C121.594 45.6882 119.834 44.6282 117.754 43.5482C115.714 42.4682 113.854 41.3682 112.174 40.2482C110.494 39.0882 109.154 37.6882 108.154 36.0482C107.154 34.4082 106.654 32.3682 106.654 29.9282C106.654 28.0082 107.134 26.2682 108.094 24.7082C109.094 23.1082 110.594 21.8482 112.594 20.9282C114.594 20.0082 117.154 19.5482 120.274 19.5482C121.794 19.5482 123.374 19.7082 125.014 20.0282C126.654 20.3482 128.074 20.7882 129.274 21.3482C130.634 21.9482 131.514 22.4682 131.914 22.9082C132.314 23.3082 132.514 23.8482 132.514 24.5282C132.514 24.7682 132.494 25.1482 132.454 25.6682C132.414 26.1482 132.294 26.8882 132.094 27.8882C131.934 28.6082 131.734 29.4082 131.494 30.2882C131.294 31.1282 131.034 31.5482 130.714 31.5482C130.354 31.5482 130.054 31.3882 129.814 31.0682C129.574 30.7482 129.314 30.2682 129.034 29.6282C128.474 28.3482 127.774 27.0682 126.934 25.7882C126.134 24.5082 125.174 23.4482 124.054 22.6082C122.974 21.7282 121.714 21.2882 120.274 21.2882C117.994 21.2882 116.354 21.8882 115.354 23.0882C114.394 24.2482 113.914 25.7482 113.914 27.5882C113.914 29.2282 114.274 30.6482 114.994 31.8482C115.714 33.0082 116.694 34.0282 117.934 34.9082C119.214 35.7882 120.654 36.6482 122.254 37.4882C124.894 38.8482 127.154 40.1882 129.034 41.5082C130.954 42.8282 132.434 44.3082 133.474 45.9482C134.514 47.5882 135.034 49.5882 135.034 51.9482C135.034 55.7482 133.634 58.5682 130.834 60.4082C128.034 62.2482 124.354 63.1682 119.794 63.1682C118.034 63.1682 116.074 62.9482 113.914 62.5082C111.794 62.0682 109.914 61.5082 108.274 60.8282C106.914 60.2682 106.054 59.8482 105.694 59.5682C105.374 59.2882 105.214 58.8082 105.214 58.1282Z" fill="white"/>
<path d="M140.462 62.2082V60.4682H143.522V22.3682H140.462V20.6282H170.342C170.822 20.6282 171.062 20.7482 171.062 20.9882C171.062 21.1082 171.022 21.2882 170.942 21.5282C170.902 21.7682 170.862 21.9482 170.822 22.0682C169.942 24.7082 169.422 27.3482 169.262 29.9882C169.262 30.1482 169.162 30.3082 168.962 30.4682C168.762 30.5882 168.542 30.6482 168.302 30.6482C168.142 30.6482 167.942 30.5882 167.702 30.4682C167.502 30.3482 167.382 30.1882 167.342 29.9882C167.102 28.3482 166.522 26.8882 165.602 25.6082C164.882 24.5682 164.022 23.7682 163.022 23.2082C162.062 22.6482 160.882 22.3682 159.482 22.3682H151.742V39.7682H154.382C155.622 39.7682 156.802 39.6082 157.922 39.2882C159.042 38.9282 159.922 38.4082 160.562 37.7282C161.002 37.2482 161.382 36.7082 161.702 36.1082C162.062 35.4682 162.322 34.7882 162.482 34.0682C162.602 33.5482 162.902 33.2882 163.382 33.2882C164.022 33.2882 164.342 33.5482 164.342 34.0682V47.5082C164.342 48.0682 164.022 48.3482 163.382 48.3482C162.902 48.3482 162.602 48.0882 162.482 47.5682C162.202 46.2082 161.602 44.9282 160.682 43.7282C160.042 42.8882 159.142 42.3082 157.982 41.9882C156.822 41.6682 155.622 41.5082 154.382 41.5082H151.742V60.4682H157.442C159.402 60.4682 161.142 60.2482 162.662 59.8082C164.222 59.3682 165.702 58.3482 167.102 56.7482C167.782 55.9882 168.362 55.2282 168.842 54.4682C169.322 53.6682 169.782 52.7682 170.222 51.7682C170.382 51.4482 170.542 51.2082 170.702 51.0482C170.902 50.8482 171.202 50.7482 171.602 50.7482C171.922 50.7482 172.182 50.8482 172.382 51.0482C172.582 51.2482 172.682 51.4882 172.682 51.7682C172.682 51.9682 172.642 52.2882 172.562 52.7282C172.482 53.1282 172.402 53.6282 172.322 54.2282L170.942 62.2082H140.462Z" fill="white"/>
<path d="M174.681 62.2082V60.4682C176.081 60.4682 177.141 60.0482 177.861 59.2082C178.621 58.3282 179.181 57.3282 179.541 56.2082L190.041 25.2482C190.121 25.0082 190.181 24.8082 190.221 24.6482C190.261 24.4482 190.281 24.2282 190.281 23.9882C190.281 23.3882 189.961 23.0282 189.321 22.9082C189.041 22.8282 188.761 22.7082 188.481 22.5482C188.201 22.3882 188.061 22.1882 188.061 21.9482C188.061 21.7082 188.181 21.5282 188.421 21.4082C188.701 21.2482 188.921 21.1682 189.081 21.1682C190.641 21.1682 192.041 21.0682 193.281 20.8682C194.521 20.6682 195.421 20.3682 195.981 19.9682C196.181 19.8482 196.421 19.7482 196.701 19.6682C197.021 19.5882 197.261 19.5482 197.421 19.5482C197.741 19.5482 198.001 19.7682 198.201 20.2082C198.441 20.6482 198.681 21.2482 198.921 22.0082L211.161 60.4682H213.981V62.2082H199.161V60.4682H202.401L199.221 50.2682H183.681L181.521 56.4482C181.441 56.7282 181.361 57.0482 181.281 57.4082C181.201 57.7682 181.161 58.0482 181.161 58.2482C181.161 58.7682 181.381 59.2682 181.821 59.7482C182.261 60.2282 183.081 60.4682 184.281 60.4682V62.2082H174.681ZM184.281 48.4682H198.621L191.661 26.6882L184.281 48.4682Z" fill="white"/>
<path d="M250.794 19.9682V62.2082H241.386L226.026 35.2002L226.282 62.2082H216.874V19.9682H226.666L241.642 46.3362L241.386 19.9682H250.794Z" fill="white"/>
<path d="M289.169 53.6962V62.2082H255.953V19.9682H288.017V28.4802H265.361V36.5442H286.865V44.2882H265.361V53.6962H289.169Z" fill="white"/>
<path d="M329.016 28.4802H315.32V62.2082H305.912V28.4802H292.152V19.9682H329.016V28.4802Z" fill="white"/>
<path d="M89.2072 30.4562C89.1805 30.3215 88.5881 29.7403 88.438 29.6968C87.2743 29.3515 85.5268 30.6064 84.3646 31.0345C74.3088 34.7345 67.0646 29.4315 60.3481 22.5902C54.012 16.1348 49.0207 6.48748 41.0943 2.01826C33.0022 -2.545 26.4219 1.24205 20.7161 7.27914C17.3361 10.8556 14.2467 15.6196 11.8085 19.8965C7.85583 26.8278 4.44918 33.3533 1.39062 40.7506C0.846008 42.0644 0.0206625 43.388 0.917595 44.7187C1.56748 45.683 5.27031 46.5785 6.55746 47.213C10.5986 49.2076 15.072 54.9527 17.7768 58.5699C23.5444 66.2816 29.0046 75.9372 36.7261 81.8284C36.9759 82.0193 37.5486 82.5428 37.7662 82.6116C38.6926 82.8994 39.5194 82.5807 40.0794 81.8228C40.9848 80.596 41.8733 78.6056 42.7646 77.216C48.3188 68.5625 57.0173 57.7038 66.0975 52.7321C69.4059 50.92 72.9641 49.769 76.1013 47.5906C80.7628 44.3523 85.8103 37.3762 88.5095 32.3736C88.7159 31.9904 89.2802 30.8282 89.2072 30.4562ZM64.0706 29.8049C65.2651 30.751 67.6527 32.368 69.0002 33.008C70.0207 33.4923 71.4608 33.759 72.55 34.1562C72.6104 34.4454 72.4069 34.4805 72.2272 34.6026C71.4777 35.1121 68.4612 36.0512 67.5516 36.1059C66.7207 36.1564 66.4077 35.6918 65.8883 35.1388C63.9597 33.0838 62.4255 30.1432 61.3335 27.5647C61.537 27.3541 63.7772 29.5719 64.0706 29.8049ZM58.3283 27.6938C58.6455 27.924 59.8807 30.626 60.2386 31.2535C61.0682 32.7119 62.3553 34.4271 63.0403 35.8827C63.3561 36.5537 63.3295 36.6674 62.5996 36.8933C60.32 37.6022 57.9282 37.8324 55.5476 38.676C54.937 38.8907 54.0163 39.695 53.4127 39.1995L47.1791 29.4708C47.3587 28.6974 53.9012 27.677 54.9946 27.6054C55.6066 27.5647 57.9633 27.4313 58.3283 27.6938ZM32.7004 34.9507C33.0415 35.6216 33.0541 35.7536 32.6457 36.3894C31.5551 38.0864 29.2138 40.286 27.8213 41.9409C27.4213 42.4167 26.9497 42.9824 26.6942 43.5494L19.6732 35.0686C21.1779 31.4317 23.769 28.4799 26.3559 25.5912C26.8219 25.5168 27.4199 26.679 27.681 27.0706C29.1731 29.3038 31.5368 32.6571 32.7004 34.9507ZM28.387 23.4464C30.6483 21.5978 33.0078 18.8115 35.6256 17.4921C36.7682 16.9166 36.9016 17.77 37.4967 18.6571C38.9509 20.8202 40.4752 23.3116 41.8143 25.5575C42.0305 25.9196 43.2503 27.8945 43.0931 28.1135C41.8663 28.7817 40.4598 29.5017 39.3271 30.3074C38.068 31.2029 36.8272 32.6656 35.6074 33.4586C35.4698 33.5484 35.3716 33.6327 35.1905 33.6032L28.387 23.4464ZM34.4367 38.3924H34.9435L41.5589 48.9521L35.4614 56.317C35.2088 56.3592 35.2775 56.2202 35.2074 56.1388C33.8837 54.6172 32.8282 51.9517 31.6351 50.1803C30.6357 48.6924 29.3668 47.394 28.4263 45.8641L34.4367 38.3924ZM37.1795 36.6393C36.8594 36.0792 37.4546 35.4448 37.8238 35.0447C38.8947 33.8881 41.0423 32.4017 42.4137 31.5721C42.9008 31.2773 44.0237 30.4885 44.5529 30.6668L51.2216 40.7857L43.6138 46.9C43.4019 46.7863 43.2601 46.594 43.1267 46.4017C41.003 43.3417 39.2906 39.7371 37.1795 36.6393ZM51.2974 16.3551C52.4077 17.763 53.5109 19.9232 54.5707 21.4953C54.8963 21.9782 56.9218 24.2858 56.4263 24.7602C54.5272 24.9118 52.5958 25.0199 50.7373 25.441C49.7295 25.6698 46.2302 27.065 45.5803 26.8404L39.0969 16.0646C39.3228 15.628 42.5555 15.2533 43.1674 15.2182C44.8617 15.1199 49.2158 15.0554 50.6363 15.7544C50.8917 15.8793 51.1219 16.1334 51.2974 16.3551ZM46.6808 10.3138L48.4311 12.5583C46.2358 12.9022 43.9788 12.5386 41.7736 12.7014C40.2619 12.8137 38.8105 13.3738 37.3072 13.524C35.686 10.9174 34.0171 8.38943 31.9565 6.10709C31.6519 5.76741 29.7303 4.02127 29.7808 3.79809C36.3317 0.453194 42.4951 5.7253 46.6808 10.3138ZM20.5308 11.6515C21.8039 10.1033 23.6427 8.19292 25.1516 6.8777C25.3874 6.67417 26.9244 5.41369 27.0437 5.41088C27.7077 5.39264 30.6399 8.7235 31.1803 9.40848C31.6477 10.0022 34.7582 14.5304 34.6796 14.8588C33.4402 15.7825 32.0281 16.4787 30.8378 17.471C30.317 17.9062 29.8707 18.4887 29.3626 18.9421C28.4797 19.7309 27.4087 20.3373 26.7672 21.3914C26.6535 21.2412 26.4542 21.1865 26.3251 21.0644C25.9166 20.6756 25.5559 20.131 25.08 19.7155C22.9324 17.8346 20.4789 16.5334 18.007 15.155C18.8155 14.004 19.6409 12.7351 20.5308 11.6515ZM10.0764 28.4027C11.4071 25.8045 13.1251 22.854 14.613 20.3176C14.9092 19.8123 15.9296 17.8079 16.397 17.7433C17.395 17.6072 21.2817 20.3527 22.1422 21.1093C22.5268 21.4476 24.1564 23.0323 24.1676 23.4267C24.1831 23.9503 20.841 27.6952 20.2725 28.5009C19.1664 30.0688 18.2442 31.7869 17.2982 33.453L17.0975 33.4474C15.6714 32.2094 13.6683 31.0752 11.8338 30.5783C11.4099 30.4632 9.5332 30.2541 9.4574 30.0014C9.37178 29.7165 9.91499 28.7185 10.0764 28.4027ZM10.2112 45.7841C10.0876 45.9132 10.0287 46.0788 9.80129 46.076C9.68339 46.0746 8.22078 45.1033 7.86005 44.9278C6.5729 44.3004 5.18048 43.84 3.83719 43.3417L3.69261 43.0596C4.1488 41.6812 4.50252 40.2803 5.0359 38.9272C5.90476 36.7221 7.21577 34.6994 8.05936 32.4803C10.8975 32.7919 13.5701 34.0888 15.7345 35.9066C14.3182 38.2282 13.2065 40.7253 11.8562 43.0834C11.4899 43.7235 10.6421 45.3307 10.2112 45.7841ZM18.8408 55.6826L12.4556 48.1099C12.4177 47.7702 14.1175 44.4169 14.4235 43.8274C15.5085 41.7373 16.7522 39.6964 17.9354 37.6597C20.8382 39.7849 22.8033 42.9768 24.8807 45.8711L19.2465 55.7289C19.1314 55.7949 18.9517 55.764 18.8408 55.6826ZM27.3371 67.3792C25.1825 64.5972 23.3479 61.3533 21.1077 58.605L20.9449 58.1909L26.6409 48.4636L26.9763 48.6686C29.6447 51.7889 31.6224 55.3864 33.7068 58.9054L28.0094 67.9393C27.8101 67.9715 27.4578 67.5364 27.3371 67.3792ZM38.2449 79.2864C38.054 79.3214 37.8532 79.1334 37.7044 79.0253C37.0349 78.5382 35.7155 77.1486 35.0544 76.4889C33.7405 75.1779 31.3445 72.8282 30.3423 71.3852C29.9858 70.8715 29.9577 70.4069 30.1711 69.8117C31.9916 67.6501 33.3714 63.6413 35.2523 61.7113C35.3842 61.5751 35.4375 61.446 35.6677 61.4993C37.8729 65.0155 40.7195 68.074 43.6517 70.9908L38.2449 79.2864ZM47.5946 65.9194C47.2001 66.3868 45.6365 68.6228 45.2687 68.6579C45.0652 68.6776 44.908 68.599 44.7788 68.4474C41.9056 65.5208 39.4113 62.2966 36.9479 59.0261L42.7478 51.5292C42.9204 51.3453 43.1787 51.4408 43.3429 51.5853C43.5422 51.7636 43.9774 52.5609 44.2286 52.8711C45.1003 53.9407 45.9846 55.0622 46.8927 56.0967C48.4003 57.8133 50.1885 59.2984 51.4883 61.1695C51.536 61.6551 48.1602 65.2499 47.5946 65.9194ZM61.3279 52.6577C61.1721 52.6928 60.9966 52.7265 60.8661 52.8234C58.3423 54.7028 56.074 56.8953 53.7103 58.9643C52.134 57.5466 50.6124 56.0742 49.2017 54.4895C48.1981 53.3624 46.1095 51.066 45.4287 49.849C45.322 49.6595 45.155 49.5079 45.2252 49.2581L52.8232 43.1424C54.5496 45.1047 56.2467 47.1147 58.0363 49.0209C58.828 49.8645 60.6667 51.3481 61.2001 52.1665C61.3068 52.3321 61.3826 52.45 61.3279 52.6577ZM73.0203 46.1925C71.8426 47.2074 68.9511 48.1689 67.4534 48.8988C66.3108 49.4546 65.2862 50.228 64.0888 50.6716C63.4769 50.52 63.2677 49.8687 62.8817 49.5037C60.7622 47.5035 58.6497 45.8767 56.7099 43.6154C56.4895 43.36 55.1883 41.75 55.3034 41.59C56.9653 41.0987 58.6104 40.4825 60.292 40.0544C61.0303 39.8663 64.684 38.9988 65.157 39.0844C65.7466 39.1897 68.1622 41.7528 68.9174 42.3465C69.5954 42.8785 70.4319 43.4133 71.1604 43.8891C71.976 44.4225 74.3102 45.0822 73.0203 46.1925ZM77.8123 42.7115C77.1919 43.2027 77.2017 43.1929 76.4382 42.9571C74.591 42.383 71.6377 40.9457 70.2312 39.6305C69.907 39.3273 69.8045 38.8304 69.3273 38.7798L69.4143 38.5019C71.6264 37.845 74.0702 37.1362 76.1532 36.1438C76.7905 35.8392 77.4614 35.2019 78.0973 35.0026C78.9367 34.7401 79.8841 34.8258 80.7375 34.6994C81.5236 34.5815 82.7363 34.2054 83.4606 34.1843C83.688 34.1773 83.7582 34.1464 83.9098 34.3682C82.2296 37.1081 80.3642 40.6916 77.8123 42.7115Z" fill="white"/>
</svg>
